<svg width="482" height="265" xmlns="http://www.w3.org/2000/svg" preserveAspectRatio="xMidYMid meet">
 <metadata>Created by potrace 1.15, written by Peter Selinger 2001-2017</metadata>

 <g>
  <title>background</title>
  <rect fill="none" id="canvas_background" height="267" width="484" y="-1" x="-1"/>
 </g>
 <g>
  <title>Layer 1</title>
  <g id="svg_1" fill="#000000" transform="translate(0,701) scale(0.10000000149011612,-0.10000000149011612) ">
   <path stroke-width="0" id="svg_2" d="m-2050,5425l0,-3505l3600,0l3600,0l0,3505l0,3505l-3600,0l-3600,0l0,-3505zm3610,1260c8,-5 -19,-17 -69,-31c-431,-125 -741,-543 -741,-999c0,-457 309,-873 742,-999c111,-33 87,-41 -112,-40c-135,1 -168,4 -255,27c-370,99 -653,383 -752,755c-23,85 -26,117 -26,257c0,142 3,172 26,260c107,402 423,691 841,771c74,14 323,13 346,-1zm-259,-697c81,-28 106,-64 111,-163c3,-60 3,-60 -26,-63c-17,-2 -49,-1 -72,3c-43,6 -45,8 -58,67c-8,35 -57,53 -95,35l-26,-12l-3,-260c-3,-293 -1,-299 62,-299c53,0 69,22 74,98c4,55 1,69 -17,92c-14,18 -21,41 -21,71l0,44l88,-3l87,-3l3,-212l2,-213l-23,0c-13,0 -28,5 -35,12c-8,8 -30,7 -87,-7c-91,-21 -168,-11 -222,30c-62,48 -63,53 -63,382c0,343 2,351 80,391c35,17 61,22 126,22c44,0 96,-5 115,-12zm674,-8c4,-6 7,-45 8,-87l2,-78l-45,4c-30,2 -49,9 -58,22c-7,10 -24,19 -36,19c-32,0 -36,-29 -36,-311c0,-221 1,-238 20,-262c13,-17 20,-40 20,-71l0,-46l-110,0l-110,0l0,47c0,27 6,53 15,63c12,13 15,63 15,285c0,149 0,276 0,283c0,19 -40,14 -58,-8c-11,-13 -32,-20 -62,-22l-45,-3l-1,65c-2,118 -20,110 245,110c145,0 232,-4 236,-10zm442,-16c53,-38 73,-96 73,-209c0,-83 -4,-106 -20,-133l-20,-33l20,-26c17,-22 20,-40 20,-143c0,-104 2,-119 20,-135c15,-13 20,-31 20,-67l0,-48l-73,0c-107,0 -111,6 -117,176c-3,78 -10,138 -16,144c-6,6 -29,10 -50,8l-39,-3l-3,-96c-2,-85 -1,-97 18,-114c15,-13 20,-31 20,-67l0,-48l-110,0l-110,0l0,43c0,24 7,52 15,63c22,29 22,586 0,604c-10,8 -15,30 -15,62l0,49l169,-3c153,-3 172,-5 198,-24zm573,-264l0,-80l-75,0l-75,0l0,73c0,41 3,77 7,80c3,4 37,7 75,7l68,0l0,-80zm-222,-287l-3,-78l-75,0l-75,0l-3,78l-3,77l81,0l81,0l-3,-77zm222,-3l0,-80l-75,0l-75,0l0,80l0,80l75,0l75,0l0,-80zm228,3l-3,-78l-75,0l-75,0l-3,64c-2,35 -1,70 2,77c4,10 27,14 81,14l76,0l-3,-77z"/>
   <path stroke-width="0" id="svg_3" d="m2234,5847c-2,-7 -3,-58 -2,-113l3,-99l38,-3c60,-5 67,7 67,112c0,58 -4,96 -12,104c-16,16 -87,15 -94,-1z"/>
  </g>
 </g>
</svg>